<?xml version="1.0" encoding="UTF-8"?><svg id="a" xmlns="http://www.w3.org/2000/svg" width="154.92" height="182" viewBox="0 0 154.92 182"><path d="M154.79,91.16c0,14.7-.01,29.4.02,44.1,0,1.26-.2,2.13-1.43,2.86-24.42,14.29-48.82,28.61-73.17,43.01-2.04,1.2-3.53,1.15-5.56-.06-23.94-14.24-47.93-28.4-71.95-42.5-1.89-1.11-2.59-2.34-2.59-4.5C.13,105.18.08,76.29,0,47.4c0-1.59.51-2.54,1.88-3.34C26.6,29.56,51.31,15.04,76,.47c1.32-.78,2.23-.51,3.38.17,22.86,13.48,45.74,26.94,68.61,40.4,1.7,1,3.38,2.05,5.16,2.91,1.39.67,1.78,1.6,1.78,3.11-.06,14.7-.03,29.4-.03,44.1h-.1ZM151.78,91.43h0c0-14.12,0-28.23,0-42.35,0-1.16.06-2.13-1.29-2.91-23.63-13.75-47.23-27.57-70.81-41.42-1.41-.83-2.48-1.04-3.97-.14-6.08,3.65-12.25,7.16-18.37,10.74-17.54,10.26-35.07,20.56-52.65,30.77-1.29.75-1.42,1.65-1.42,2.86-.06,28.01-.13,56.02-.25,84.03,0,1.68.49,2.67,1.94,3.51,9.55,5.54,19.06,11.15,28.57,16.74,13.99,8.23,27.98,16.45,41.95,24.72,1.42.84,2.53.89,4,.02,6.27-3.75,12.63-7.36,18.94-11.05,17.16-10.04,34.31-20.11,51.49-30.12,1.46-.85,1.93-1.83,1.92-3.5-.07-13.97-.04-27.94-.04-41.91Z" stroke-width="0"/><path d="M147.83,91.31c0,13.23-.01,26.47.02,39.7,0,1.35-.26,2.27-1.57,3.03-21.45,12.54-42.93,25.04-64.24,37.81-3.42,2.05-5.71,1.98-9.12-.09-16.18-9.83-32.57-19.29-48.89-28.88-5.04-2.96-10.07-5.94-15.15-8.83-1.18-.67-1.58-1.49-1.57-2.81.02-26.61.03-53.23-.03-79.84,0-1.86,1.09-2.56,2.35-3.31,10.02-5.88,20.04-11.75,30.06-17.64,11.72-6.89,23.47-13.73,35.1-20.76,2.15-1.3,3.65-1.16,5.71.06,20.05,11.89,40.17,23.68,60.26,35.52,2.38,1.4,5.55,2.43,6.79,4.54,1.19,2.02.39,5.24.4,7.94.02,11.19,0,22.37,0,33.56h-.1ZM46.81,96.47c-1.01,0-1.87,0-2.73,0-6.95.01-13.9.03-20.85.03-2.92,0-3.05-.14-3.05-3.14,0-10.97.02-21.94-.04-32.91,0-1.57.44-2.54,1.85-3.34,6.86-3.91,13.67-7.9,20.48-11.88,11.11-6.49,22.21-13.01,33.36-19.44.78-.45,2.19-.59,2.93-.18,5.83,3.2,11.56,6.59,17.34,9.88,1.22.69,1.68,1.6,1.66,3.03-.08,5.41.05,10.83-.1,16.24-.03.95-.77,2.16-1.55,2.75-1.63,1.22-3.54,2.05-5.27,3.14-.57.35-1.32.98-1.35,1.52-.14,2.6-.06,5.2-.06,7.96,9.85,0,19.43.01,29-.03.51,0,1.07-.39,1.52-.71,1.37-.96,2.67-.84,3.73.35,1,1.12.97,2.46-.04,3.59-1.08,1.2-2.34,1.2-3.75.39-.83-.48-1.84-.87-2.77-.88-8.48-.07-16.97-.04-25.45-.04-.7,0-1.4,0-2.27,0,0,3.11,0,5.88,0,8.65q0,3.18-3.11,3.19c-3.92,0-7.84,0-11.76,0-.11.58-.21.86-.21,1.14-.01,9.65-.05,19.31.04,28.96,0,.79.64,1.76,1.27,2.32,2.63,2.32,5.43,4.45,8.02,6.82.75.69,1.32,1.92,1.38,2.94.18,2.99-.03,6,.09,8.99.09,2.1-.88,2.69-2.77,2.62-2.19-.08-4.39-.11-6.58,0-1.96.11-3.51-.5-4.96-1.82-2-1.82-4.1-3.54-6.29-5.13-.87-.63-2.07-1.1-3.14-1.14-3.8-.14-7.6-.05-11.41-.06-2.71,0-2.99-.29-2.99-3.04,0-2.89,0-5.78,0-8.74h-9.28c-.09.47-.21.82-.21,1.17-.02,4.83-.09,9.66.05,14.48.02.78.84,1.81,1.57,2.24,12.47,7.35,24.98,14.64,37.51,21.89.57.33,1.62.45,2.14.15,6.35-3.62,12.66-7.32,18.93-11.08.56-.34,1.11-1.21,1.13-1.85.12-5.12.16-10.24.1-15.36,0-.75-.48-1.65-1.02-2.21-2.08-2.16-2.11-4.45-.07-6.54.5-.51.93-1.31.97-2,.16-2.63.07-5.26.21-7.89.09-1.62-.48-2.23-2.12-2.18-3.29.09-6.58.03-9.87.05-2.98.01-3,0-3.02-3.07-.01-3.15.12-6.3-.05-9.43-.12-2.27.73-2.91,2.91-2.82,3.92.15,7.86.04,12.07.04,0-3.3.09-6.35-.03-9.4-.08-2.05.55-2.81,2.74-2.78,9.29.11,18.58.05,27.87.04.78,0,1.55-.07,2.34-.11v-20.9c-.96,0-1.75,0-2.54,0-6.22,0-12.44-.08-18.65.05-2.24.05-2.9-.7-2.88-2.89.12-8.7.03-17.41.14-26.11.02-1.69-.5-2.64-1.97-3.48-8.83-5.04-17.63-10.12-26.37-15.3-1.45-.86-2.45-.92-3.93-.06-21.18,12.44-42.4,24.82-63.64,37.16-1.38.8-1.66,1.74-1.66,3.18,0,25.16,0,50.32-.1,75.48,0,1.85.55,2.88,2.14,3.81,21.23,12.36,42.43,24.77,63.61,37.22,1.27.75,2.18.69,3.39-.04,5.13-3.09,10.31-6.11,15.49-9.14,16.03-9.38,32.05-18.76,48.09-28.12,1.13-.66,1.85-1.29,1.85-2.84-.05-25.53-.02-51.05.02-76.58,0-1.37-.31-2.25-1.6-2.99-9-5.16-17.95-10.42-26.92-15.64-1.68-.98-3.36-1.96-5.33-3.11v26.48c.9,0,1.62,0,2.34,0,6.29,0,12.58.03,18.87,0,1.5,0,2.61.25,2.61,2.1-.01,7.53-.01,15.07.01,22.6,0,1.43-.69,1.95-2.04,1.9-1.31-.05-2.63,0-3.95,0-8.41,0-16.82-.03-25.23.04-.68,0-1.93.59-1.95.97-.17,2.74-.09,5.5-.09,8.44,5.34,0,10.45.04,15.56-.05.56,0,1.19-.67,1.66-1.16,1.67-1.76,4.23-2.17,5.59-.38,1.27,1.66,2.71,1.64,4.38,1.61,1.1-.02,2.2.08,3.29-.03,2.07-.21,2.81.55,2.79,2.71-.09,9.58-.12,19.16.03,28.74.04,2.5-.73,3.93-2.91,5.19-17.65,10.22-35.24,20.55-52.81,30.92-1.29.76-2.13.38-3.18-.23-7.5-4.41-15.01-8.8-22.52-13.19-10.41-6.09-20.81-12.21-31.25-18.26-1.51-.88-2.1-1.93-2.07-3.7.1-6.29.04-12.58.04-18.87,0-3.05.08-3.14,3.02-3.14,7.09,0,14.19,0,21.28-.01.77,0,1.55-.07,2.33-.1v-7.65ZM59.52,84.73c-.88-.04-1.66-.11-2.45-.11-6.51,0-13.02-.08-19.53.04-2.13.04-3.06-.54-3.02-2.8.1-5.78.06-11.55.01-17.33-.02-1.98.8-2.66,2.78-2.63,6.36.1,12.72.04,19.09.04.85,0,1.71-.07,2.71-.12,0-2.04.07-3.86-.02-5.68-.07-1.5.49-2.46,1.81-3.17,3.35-1.8,6.71-3.59,9.94-5.58,1.07-.65,1.99-1.77,2.6-2.89.95-1.73,2.21-2.69,4.18-2.61,1.96.08,3.29,1.09,3.94,2.94.64,1.81.17,3.44-1.33,4.48-1.15.8-1.37,1.68-1.36,2.93.05,5.85-.04,11.7.08,17.55.04,2.08-.59,2.85-2.74,2.82-8.04-.1-16.09-.04-24.13-.04-.78,0-1.55,0-2.41,0v9.38c3.49,0,6.84.07,10.18-.03,1.82-.06,2.43.6,2.41,2.42-.08,6.65-.13,13.31,0,19.96.04,2.19-.73,2.71-2.78,2.69-11.26-.08-22.52-.03-33.79-.03-.78,0-1.56,0-2.57,0,0,6.62,0,12.96.02,19.31,0,.38.2.95.49,1.12,3.56,2.1,7.15,4.14,11.09,6.41,0-5.54.06-10.58-.03-15.61-.03-1.88.57-2.56,2.53-2.54,7.46.1,14.92.04,22.38.04.44,0,.98-.14,1.29.06.54.35.94.92,1.4,1.4-.49.4-.93,1.04-1.48,1.15-.99.19-2.04.06-3.06.06-2.59,0-5.18,0-7.76,0v9.19c3.56,0,6.99.15,10.39-.05,2.66-.16,4.79.48,6.71,2.39,1.7,1.7,3.67,3.13,5.55,4.64.49.4,1.1.9,1.67.92,2.61.1,5.22.04,8.09.04,0-2.64.13-5.04-.06-7.42-.08-1.01-.62-2.24-1.37-2.91-2.56-2.29-5.36-4.31-7.92-6.58-.71-.63-1.32-1.8-1.33-2.72-.1-10.46-.03-20.92-.13-31.37-.02-2.08.72-2.64,2.7-2.57,4,.13,8,.04,11.96.04.14-.46.26-.66.26-.86.06-4.75.11-9.51.15-14.26.08-8.85-1.03-6.55,6.15-10.75.19-.11.46-.17.56-.33.48-.79,1.29-1.6,1.32-2.42.14-4.38.04-8.77.12-13.16.03-1.36-.47-2.11-1.64-2.76-4.66-2.61-9.28-5.27-13.87-8-1.3-.77-2.34-.77-3.64-.01-16.85,9.85-33.71,19.68-50.6,29.45-1.45.84-1.99,1.74-1.98,3.44.1,9.43.05,18.87.05,28.3,0,1.01,0,2.02,0,3.16.93.05,1.64.11,2.35.11,7.17.03,14.33.06,21.5.07,2.73,0,2.87.13,2.88,2.8,0,2.44,0,4.89,0,7.31h9.66v-19.34ZM131.98,96.72c-2.98.39-5.75-.9-7.99,1.81-1.2,1.45-3.34.88-4.96-.39-.87-.69-2.09-1.29-3.16-1.31-8.84-.1-17.69-.06-26.53-.06-.78,0-1.55,0-2.43,0v9.82c5.84,0,11.53,0,17.22,0,5.48,0,10.96.03,16.44-.02,1.56-.01,2.24.47,2.2,2.15-.1,3.94,0,7.89-.07,11.84-.01.71-.31,1.67-.82,2.07-1.61,1.25-3.34,2.36-5.12,3.36-.44.25-1.25-.16-1.89-.27.15-.66.08-1.56.49-1.92,1.04-.9,2.33-1.5,3.44-2.33.54-.4,1.27-1.02,1.29-1.56.12-3.41.06-6.83.06-10.37h-18.5c0,3.23-.1,6.28.06,9.33.05.94.59,2.01,1.23,2.72,1.48,1.65,2.07,3.99.48,5.3-2.04,1.67-1.74,3.64-1.74,5.69,0,3.51,0,7.02.04,10.52,0,.53.12,1.05.22,1.78,9.81-5.73,19.41-11.29,28.94-16.98.65-.39,1.07-1.68,1.08-2.55.08-7.89.05-15.79.04-23.68,0-1.52,0-3.04,0-4.95ZM46.77,81.85c0-3.28.09-6.27-.03-9.25-.08-2.08.66-2.79,2.78-2.76,7.96.1,15.93.04,23.89.04.85,0,1.71,0,2.78,0,0-6.49.05-12.68-.04-18.87-.02-1.38-1.8-2.07-3.14-1.35-3.08,1.67-6.11,3.44-9.23,5.04-1.43.74-2.01,1.68-1.86,3.29.14,1.45-.02,2.92.04,4.38.07,1.7-.46,2.59-2.37,2.48-2.18-.13-4.38-.03-6.57-.03-5.1,0-10.2,0-15.46,0v17.03h9.21Z" stroke-width="0"/></svg>